<svg xmlns="http://www.w3.org/2000/svg" width="263" height="90.94" viewBox="0 0 263 90.94">
  <g id="Logo" transform="matrix(0.966, -0.259, 0.259, 0.966, 219.829, 63.268)">
    <path id="Path_1" data-name="Path 1" d="M9.5,14.386a1.364,1.364,0,1,0,1.357,1.364A1.359,1.359,0,0,0,9.5,14.386Z"/>
    <path id="Path_2" data-name="Path 2" d="M32.787,17.5C31.3,11.278,29.721,7.973,26.564,7.038a6.272,6.272,0,0,0-1.807-.281c-1.941,0-3.3,1.034-6.757,1.034s-4.816-1.034-6.757-1.034a6.2,6.2,0,0,0-1.807.281C6.279,7.973,4.7,11.285,3.213,17.5S2,28.216,3.755,29.053a2.051,2.051,0,0,0,.879.2c1.526,0,3.171-1.673,4.76-3.656,1.807-2.257,2.257-2.32,7.755-2.32h1.709c5.491,0,5.948.056,7.755,2.32,1.582,1.983,3.234,3.656,4.76,3.656a2.074,2.074,0,0,0,.879-.2C34,28.209,34.27,23.716,32.787,17.5ZM9.506,18.534a2.785,2.785,0,1,1,2.756-2.784A2.776,2.776,0,0,1,9.506,18.534Zm12.157-1.371a1.413,1.413,0,1,1,1.413-1.413A1.413,1.413,0,0,1,21.663,17.163ZM24.75,20.25a1.41,1.41,0,1,1,1.413-1.406A1.412,1.412,0,0,1,24.75,20.25Zm0-6.173a1.413,1.413,0,1,1,1.413-1.413A1.413,1.413,0,0,1,24.75,14.077Zm3.087,3.087A1.413,1.413,0,1,1,29.25,15.75,1.413,1.413,0,0,1,27.837,17.163Z"/>
    <text id="SwapMe" transform="matrix(0.966, 0.259, -0.259, 0.966, -211.492, -60.053)" fill="#20a6ff" font-size="60" font-family="BeVietnamPro-BoldItalic, Be Vietnam Pro" font-weight="700" font-style="italic"><tspan x="0" y="0">SwapMe</tspan></text>
  </g>
</svg>
